<svg width="256" height="256" viewBox="0 0 256 256" fill="none" xmlns="http://www.w3.org/2000/svg">
<path fill-rule="evenodd" clip-rule="evenodd" d="M128 248C194.274 248 248 194.274 248 128C248 61.7258 194.274 8 128 8C61.7258 8 8 61.7258 8 128C8 194.274 61.7258 248 128 248ZM128 232C185.438 232 232 185.438 232 128C232 70.5624 185.438 24 128 24C70.5624 24 24 70.5624 24 128C24 185.438 70.5624 232 128 232Z" fill="#282828"/>
<g opacity="0.5">
<path fill-rule="evenodd" clip-rule="evenodd" d="M128 248C194.274 248 248 194.274 248 128C248 61.7258 194.274 8 128 8C61.7258 8 8 61.7258 8 128C8 194.274 61.7258 248 128 248ZM128 232C185.438 232 232 185.438 232 128C232 70.5624 185.438 24 128 24C70.5624 24 24 70.5624 24 128C24 185.438 70.5624 232 128 232Z" fill="url(#paint0_radial_19_50971)"/>
<path fill-rule="evenodd" clip-rule="evenodd" d="M128 248C194.274 248 248 194.274 248 128C248 61.7258 194.274 8 128 8C61.7258 8 8 61.7258 8 128C8 194.274 61.7258 248 128 248ZM128 232C185.438 232 232 185.438 232 128C232 70.5624 185.438 24 128 24C70.5624 24 24 70.5624 24 128C24 185.438 70.5624 232 128 232Z" fill="url(#paint1_linear_19_50971)" fill-opacity="0.25"/>
</g>
<defs>
<radialGradient id="paint0_radial_19_50971" cx="0" cy="0" r="1" gradientUnits="userSpaceOnUse" gradientTransform="translate(128 128) rotate(90) scale(120)">
<stop offset="0.848958"/>
<stop offset="0.916667" stop-opacity="0.5"/>
<stop offset="1"/>
</radialGradient>
<linearGradient id="paint1_linear_19_50971" x1="248" y1="8.00001" x2="6.00861" y2="245.975" gradientUnits="userSpaceOnUse">
<stop offset="0.234816" stop-color="white"/>
<stop offset="0.822917" stop-opacity="0"/>
</linearGradient>
</defs>
</svg>
